<mxfile host="app.diagrams.net" modified="2021-07-11T18:21:15.004Z" agent="5.0 (X11)" etag="FflkWpi9hyfCv-ARpHYf" version="14.8.5" type="github">
  <diagram id="niUmtduJiJVGNo5zQUts" name="Page-1">
    <mxGraphModel dx="2062" dy="1124" grid="1" gridSize="10" guides="1" tooltips="1" connect="1" arrows="1" fold="1" page="1" pageScale="1" pageWidth="850" pageHeight="1100" math="0" shadow="0">
      <root>
        <mxCell id="0" />
        <mxCell id="1" parent="0" />
        <mxCell id="uUhqn-4H62vzg1NEcZKA-24" value="Office" style="fillColor=none;strokeColor=#5A6C86;dashed=1;verticalAlign=top;fontStyle=0;fontColor=#5A6C86;" vertex="1" parent="1">
          <mxGeometry x="430" y="370" width="370" height="220" as="geometry" />
        </mxCell>
        <mxCell id="uUhqn-4H62vzg1NEcZKA-26" value="Playroom Cabinent" style="fillColor=none;strokeColor=#5A6C86;dashed=1;verticalAlign=top;fontStyle=0;fontColor=#5A6C86;" vertex="1" parent="1">
          <mxGeometry x="20" y="480" width="310" height="300.9" as="geometry" />
        </mxCell>
        <mxCell id="xQfnCEk7CWuEdYwv5p65-12" value="" style="group" parent="1" vertex="1" connectable="0">
          <mxGeometry x="540" y="109.99999999999999" width="259" height="60.19999999999999" as="geometry" />
        </mxCell>
        <mxCell id="xQfnCEk7CWuEdYwv5p65-7" value="" style="points=[];aspect=fixed;html=1;align=center;shadow=0;dashed=0;image;image=img/lib/allied_telesis/security/POE_DVS_Camera.svg;" parent="xQfnCEk7CWuEdYwv5p65-12" vertex="1">
          <mxGeometry x="208" y="20" width="51" height="40.2" as="geometry" />
        </mxCell>
        <mxCell id="xQfnCEk7CWuEdYwv5p65-8" value="" style="points=[];aspect=fixed;html=1;align=center;shadow=0;dashed=0;image;image=img/lib/allied_telesis/security/POE_DVS_Camera.svg;" parent="xQfnCEk7CWuEdYwv5p65-12" vertex="1">
          <mxGeometry x="140" y="20" width="51" height="40.2" as="geometry" />
        </mxCell>
        <mxCell id="xQfnCEk7CWuEdYwv5p65-9" value="" style="points=[];aspect=fixed;html=1;align=center;shadow=0;dashed=0;image;image=img/lib/allied_telesis/security/POE_DVS_Camera.svg;" parent="xQfnCEk7CWuEdYwv5p65-12" vertex="1">
          <mxGeometry x="69.99999999999997" y="20" width="51" height="40.2" as="geometry" />
        </mxCell>
        <mxCell id="xQfnCEk7CWuEdYwv5p65-10" value="" style="points=[];aspect=fixed;html=1;align=center;shadow=0;dashed=0;image;image=img/lib/allied_telesis/security/POE_DVS_Camera.svg;" parent="xQfnCEk7CWuEdYwv5p65-12" vertex="1">
          <mxGeometry y="20" width="51" height="40.2" as="geometry" />
        </mxCell>
        <mxCell id="xQfnCEk7CWuEdYwv5p65-11" value="Outdoor PoE Cameras" style="text;html=1;strokeColor=none;fillColor=none;align=center;verticalAlign=middle;whiteSpace=wrap;rounded=0;" parent="xQfnCEk7CWuEdYwv5p65-12" vertex="1">
          <mxGeometry x="56.89999999999998" width="140" height="20" as="geometry" />
        </mxCell>
        <mxCell id="xQfnCEk7CWuEdYwv5p65-13" value="" style="group" parent="1" vertex="1" connectable="0">
          <mxGeometry x="50" y="350" width="245.2" height="65.4" as="geometry" />
        </mxCell>
        <mxCell id="xQfnCEk7CWuEdYwv5p65-1" value="" style="points=[];aspect=fixed;html=1;align=center;shadow=0;dashed=0;image;image=img/lib/allied_telesis/security/Surveillance_Camera_Ceiling.svg;" parent="xQfnCEk7CWuEdYwv5p65-13" vertex="1">
          <mxGeometry y="30" width="37.2" height="35.4" as="geometry" />
        </mxCell>
        <mxCell id="xQfnCEk7CWuEdYwv5p65-2" value="" style="points=[];aspect=fixed;html=1;align=center;shadow=0;dashed=0;image;image=img/lib/allied_telesis/security/Surveillance_Camera_Ceiling.svg;" parent="xQfnCEk7CWuEdYwv5p65-13" vertex="1">
          <mxGeometry x="70" y="30" width="37.2" height="35.4" as="geometry" />
        </mxCell>
        <mxCell id="xQfnCEk7CWuEdYwv5p65-3" value="" style="points=[];aspect=fixed;html=1;align=center;shadow=0;dashed=0;image;image=img/lib/allied_telesis/security/Surveillance_Camera_Ceiling.svg;" parent="xQfnCEk7CWuEdYwv5p65-13" vertex="1">
          <mxGeometry x="140" y="30" width="37.2" height="35.4" as="geometry" />
        </mxCell>
        <mxCell id="xQfnCEk7CWuEdYwv5p65-4" value="" style="points=[];aspect=fixed;html=1;align=center;shadow=0;dashed=0;image;image=img/lib/allied_telesis/security/Surveillance_Camera_Ceiling.svg;" parent="xQfnCEk7CWuEdYwv5p65-13" vertex="1">
          <mxGeometry x="208" y="30" width="37.2" height="35.4" as="geometry" />
        </mxCell>
        <mxCell id="xQfnCEk7CWuEdYwv5p65-5" value="Indoor Cameras" style="text;html=1;strokeColor=none;fillColor=none;align=center;verticalAlign=middle;whiteSpace=wrap;rounded=0;" parent="xQfnCEk7CWuEdYwv5p65-13" vertex="1">
          <mxGeometry x="50" width="140" height="20" as="geometry" />
        </mxCell>
        <mxCell id="xQfnCEk7CWuEdYwv5p65-14" value="" style="points=[];aspect=fixed;html=1;align=center;shadow=0;dashed=0;image;image=img/lib/allied_telesis/switch/Switch_24_port_L2_POE.svg;" parent="1" vertex="1">
          <mxGeometry x="660" y="419" width="74.4" height="51" as="geometry" />
        </mxCell>
        <mxCell id="xQfnCEk7CWuEdYwv5p65-33" style="edgeStyle=orthogonalEdgeStyle;rounded=0;orthogonalLoop=1;jettySize=auto;html=1;" parent="1" source="xQfnCEk7CWuEdYwv5p65-17" target="xQfnCEk7CWuEdYwv5p65-20" edge="1">
          <mxGeometry relative="1" as="geometry">
            <Array as="points">
              <mxPoint x="217" y="890" />
              <mxPoint x="217" y="890" />
            </Array>
          </mxGeometry>
        </mxCell>
        <mxCell id="xQfnCEk7CWuEdYwv5p65-34" style="edgeStyle=orthogonalEdgeStyle;rounded=0;orthogonalLoop=1;jettySize=auto;html=1;" parent="1" target="xQfnCEk7CWuEdYwv5p65-14" edge="1">
          <mxGeometry relative="1" as="geometry">
            <Array as="points">
              <mxPoint x="500" y="570" />
              <mxPoint x="697" y="570" />
            </Array>
            <mxPoint x="500" y="490" as="sourcePoint" />
          </mxGeometry>
        </mxCell>
        <mxCell id="uUhqn-4H62vzg1NEcZKA-3" style="edgeStyle=orthogonalEdgeStyle;rounded=0;orthogonalLoop=1;jettySize=auto;html=1;" edge="1" parent="1" source="xQfnCEk7CWuEdYwv5p65-17">
          <mxGeometry relative="1" as="geometry">
            <mxPoint x="390" y="890" as="targetPoint" />
            <Array as="points">
              <mxPoint x="280" y="986" />
              <mxPoint x="280" y="890" />
            </Array>
          </mxGeometry>
        </mxCell>
        <mxCell id="uUhqn-4H62vzg1NEcZKA-9" style="edgeStyle=orthogonalEdgeStyle;rounded=0;orthogonalLoop=1;jettySize=auto;html=1;" edge="1" parent="1" source="xQfnCEk7CWuEdYwv5p65-17" target="uUhqn-4H62vzg1NEcZKA-6">
          <mxGeometry relative="1" as="geometry">
            <Array as="points">
              <mxPoint x="329" y="1010" />
              <mxPoint x="329" y="957" />
            </Array>
          </mxGeometry>
        </mxCell>
        <mxCell id="uUhqn-4H62vzg1NEcZKA-10" style="edgeStyle=orthogonalEdgeStyle;rounded=0;orthogonalLoop=1;jettySize=auto;html=1;entryX=0.023;entryY=0.667;entryDx=0;entryDy=0;entryPerimeter=0;" edge="1" parent="1" source="xQfnCEk7CWuEdYwv5p65-17" target="uUhqn-4H62vzg1NEcZKA-7">
          <mxGeometry relative="1" as="geometry">
            <Array as="points">
              <mxPoint x="217" y="1020" />
            </Array>
          </mxGeometry>
        </mxCell>
        <mxCell id="uUhqn-4H62vzg1NEcZKA-11" style="edgeStyle=orthogonalEdgeStyle;rounded=0;orthogonalLoop=1;jettySize=auto;html=1;" edge="1" parent="1" source="xQfnCEk7CWuEdYwv5p65-17" target="uUhqn-4H62vzg1NEcZKA-8">
          <mxGeometry relative="1" as="geometry">
            <Array as="points">
              <mxPoint x="217" y="1070" />
            </Array>
          </mxGeometry>
        </mxCell>
        <mxCell id="uUhqn-4H62vzg1NEcZKA-23" style="edgeStyle=orthogonalEdgeStyle;rounded=0;orthogonalLoop=1;jettySize=auto;html=1;" edge="1" parent="1" source="xQfnCEk7CWuEdYwv5p65-17" target="uUhqn-4H62vzg1NEcZKA-21">
          <mxGeometry relative="1" as="geometry">
            <Array as="points">
              <mxPoint x="190" y="1090" />
              <mxPoint x="620" y="1090" />
              <mxPoint x="620" y="954" />
            </Array>
          </mxGeometry>
        </mxCell>
        <mxCell id="xQfnCEk7CWuEdYwv5p65-17" value="&lt;div&gt;Managed&lt;br&gt;&lt;/div&gt;" style="points=[];aspect=fixed;html=1;align=center;shadow=0;dashed=0;image;image=img/lib/allied_telesis/switch/Switch_24_port_L2.svg;" parent="1" vertex="1">
          <mxGeometry x="180" y="960" width="74.4" height="51" as="geometry" />
        </mxCell>
        <mxCell id="xQfnCEk7CWuEdYwv5p65-20" value="" style="points=[];aspect=fixed;html=1;align=center;shadow=0;dashed=0;image;image=img/lib/allied_telesis/switch/Switch_24_port_L2_POE.svg;" parent="1" vertex="1">
          <mxGeometry x="180" y="539" width="74.4" height="51" as="geometry" />
        </mxCell>
        <mxCell id="xQfnCEk7CWuEdYwv5p65-21" style="edgeStyle=orthogonalEdgeStyle;rounded=0;orthogonalLoop=1;jettySize=auto;html=1;entryX=0.183;entryY=-0.039;entryDx=0;entryDy=0;entryPerimeter=0;" parent="1" source="xQfnCEk7CWuEdYwv5p65-1" edge="1" target="xQfnCEk7CWuEdYwv5p65-20">
          <mxGeometry relative="1" as="geometry">
            <mxPoint x="656" y="820" as="targetPoint" />
            <Array as="points">
              <mxPoint x="69" y="537" />
            </Array>
          </mxGeometry>
        </mxCell>
        <mxCell id="xQfnCEk7CWuEdYwv5p65-22" style="edgeStyle=orthogonalEdgeStyle;rounded=0;orthogonalLoop=1;jettySize=auto;html=1;" parent="1" source="xQfnCEk7CWuEdYwv5p65-2" edge="1" target="xQfnCEk7CWuEdYwv5p65-20">
          <mxGeometry relative="1" as="geometry">
            <mxPoint x="660" y="780" as="targetPoint" />
            <Array as="points">
              <mxPoint x="139" y="520" />
              <mxPoint x="217" y="520" />
            </Array>
          </mxGeometry>
        </mxCell>
        <mxCell id="xQfnCEk7CWuEdYwv5p65-23" style="edgeStyle=orthogonalEdgeStyle;rounded=0;orthogonalLoop=1;jettySize=auto;html=1;entryX=0.761;entryY=0;entryDx=0;entryDy=0;entryPerimeter=0;" parent="1" source="xQfnCEk7CWuEdYwv5p65-3" target="xQfnCEk7CWuEdYwv5p65-20" edge="1">
          <mxGeometry relative="1" as="geometry" />
        </mxCell>
        <mxCell id="xQfnCEk7CWuEdYwv5p65-24" style="edgeStyle=orthogonalEdgeStyle;rounded=0;orthogonalLoop=1;jettySize=auto;html=1;entryX=0.989;entryY=0.686;entryDx=0;entryDy=0;entryPerimeter=0;" parent="1" source="xQfnCEk7CWuEdYwv5p65-4" target="xQfnCEk7CWuEdYwv5p65-20" edge="1">
          <mxGeometry relative="1" as="geometry">
            <mxPoint x="710" y="780" as="targetPoint" />
            <Array as="points">
              <mxPoint x="277" y="574" />
            </Array>
          </mxGeometry>
        </mxCell>
        <mxCell id="xQfnCEk7CWuEdYwv5p65-25" style="edgeStyle=orthogonalEdgeStyle;rounded=0;orthogonalLoop=1;jettySize=auto;html=1;" parent="1" source="xQfnCEk7CWuEdYwv5p65-10" target="xQfnCEk7CWuEdYwv5p65-14" edge="1">
          <mxGeometry relative="1" as="geometry">
            <Array as="points">
              <mxPoint x="566" y="260" />
              <mxPoint x="670" y="260" />
            </Array>
          </mxGeometry>
        </mxCell>
        <mxCell id="xQfnCEk7CWuEdYwv5p65-26" style="edgeStyle=orthogonalEdgeStyle;rounded=0;orthogonalLoop=1;jettySize=auto;html=1;" parent="1" source="xQfnCEk7CWuEdYwv5p65-9" target="xQfnCEk7CWuEdYwv5p65-14" edge="1">
          <mxGeometry relative="1" as="geometry">
            <Array as="points">
              <mxPoint x="650" y="210" />
              <mxPoint x="690" y="210" />
            </Array>
          </mxGeometry>
        </mxCell>
        <mxCell id="xQfnCEk7CWuEdYwv5p65-27" style="edgeStyle=orthogonalEdgeStyle;rounded=0;orthogonalLoop=1;jettySize=auto;html=1;" parent="1" source="xQfnCEk7CWuEdYwv5p65-8" edge="1">
          <mxGeometry relative="1" as="geometry">
            <mxPoint x="710" y="430" as="targetPoint" />
            <Array as="points">
              <mxPoint x="706" y="295" />
              <mxPoint x="710" y="295" />
              <mxPoint x="710" y="415" />
            </Array>
          </mxGeometry>
        </mxCell>
        <mxCell id="xQfnCEk7CWuEdYwv5p65-28" style="edgeStyle=orthogonalEdgeStyle;rounded=0;orthogonalLoop=1;jettySize=auto;html=1;entryX=1.044;entryY=0.392;entryDx=0;entryDy=0;entryPerimeter=0;" parent="1" source="xQfnCEk7CWuEdYwv5p65-7" target="xQfnCEk7CWuEdYwv5p65-14" edge="1">
          <mxGeometry relative="1" as="geometry">
            <Array as="points">
              <mxPoint x="780" y="439" />
            </Array>
          </mxGeometry>
        </mxCell>
        <mxCell id="xQfnCEk7CWuEdYwv5p65-31" style="edgeStyle=orthogonalEdgeStyle;rounded=0;orthogonalLoop=1;jettySize=auto;html=1;exitX=1;exitY=0.45;exitDx=0;exitDy=0;exitPerimeter=0;entryX=0.848;entryY=1.011;entryDx=0;entryDy=0;entryPerimeter=0;" parent="1" source="xQfnCEk7CWuEdYwv5p65-29" target="xQfnCEk7CWuEdYwv5p65-30" edge="1">
          <mxGeometry relative="1" as="geometry">
            <Array as="points">
              <mxPoint x="100" y="746" />
              <mxPoint x="100" y="694" />
              <mxPoint x="113" y="694" />
              <mxPoint x="113" y="670" />
            </Array>
          </mxGeometry>
        </mxCell>
        <mxCell id="xQfnCEk7CWuEdYwv5p65-29" value="Modem" style="shape=mxgraph.cisco.modems_and_phones.cable_modem;html=1;pointerEvents=1;dashed=0;fillColor=#036897;strokeColor=#ffffff;strokeWidth=2;verticalLabelPosition=bottom;verticalAlign=top;align=center;outlineConnect=0;" parent="1" vertex="1">
          <mxGeometry x="50" y="730" width="74" height="35" as="geometry" />
        </mxCell>
        <mxCell id="xQfnCEk7CWuEdYwv5p65-32" style="edgeStyle=orthogonalEdgeStyle;rounded=0;orthogonalLoop=1;jettySize=auto;html=1;exitX=0.87;exitY=0.5;exitDx=0;exitDy=0;exitPerimeter=0;" parent="1" source="xQfnCEk7CWuEdYwv5p65-30" target="xQfnCEk7CWuEdYwv5p65-17" edge="1">
          <mxGeometry relative="1" as="geometry">
            <Array as="points">
              <mxPoint x="160" y="630" />
              <mxPoint x="160" y="986" />
            </Array>
          </mxGeometry>
        </mxCell>
        <mxCell id="xQfnCEk7CWuEdYwv5p65-30" value="Router" style="aspect=fixed;pointerEvents=1;shadow=0;dashed=0;html=1;strokeColor=none;labelPosition=center;verticalLabelPosition=bottom;verticalAlign=top;align=center;fillColor=#00188D;shape=mxgraph.mscae.enterprise.router" parent="1" vertex="1">
          <mxGeometry x="49.18000000000001" y="600" width="75.64" height="59" as="geometry" />
        </mxCell>
        <mxCell id="uUhqn-4H62vzg1NEcZKA-1" value="" style="shape=image;html=1;verticalAlign=top;verticalLabelPosition=bottom;labelBackgroundColor=#ffffff;imageAspect=0;aspect=fixed;image=https://cdn1.iconfinder.com/data/icons/gamedevtycoon-platforms/128/Playsystem_4.png" vertex="1" parent="1">
          <mxGeometry x="390" y="870" width="58" height="58" as="geometry" />
        </mxCell>
        <mxCell id="uUhqn-4H62vzg1NEcZKA-4" value="" style="endArrow=none;dashed=1;html=1;dashPattern=1 3;strokeWidth=2;" edge="1" parent="1">
          <mxGeometry width="50" height="50" relative="1" as="geometry">
            <mxPoint x="10" y="320" as="sourcePoint" />
            <mxPoint x="810" y="320" as="targetPoint" />
          </mxGeometry>
        </mxCell>
        <mxCell id="uUhqn-4H62vzg1NEcZKA-5" value="" style="endArrow=none;dashed=1;html=1;dashPattern=1 3;strokeWidth=2;" edge="1" parent="1">
          <mxGeometry width="50" height="50" relative="1" as="geometry">
            <mxPoint x="10" y="850" as="sourcePoint" />
            <mxPoint x="810" y="850" as="targetPoint" />
          </mxGeometry>
        </mxCell>
        <mxCell id="uUhqn-4H62vzg1NEcZKA-6" value="" style="points=[];aspect=fixed;html=1;align=center;shadow=0;dashed=0;image;image=img/lib/allied_telesis/computer_and_terminals/Server_Desktop.svg;" vertex="1" parent="1">
          <mxGeometry x="404" y="930" width="42.599999999999994" height="54" as="geometry" />
        </mxCell>
        <mxCell id="uUhqn-4H62vzg1NEcZKA-7" value="" style="points=[];aspect=fixed;html=1;align=center;shadow=0;dashed=0;image;image=img/lib/allied_telesis/computer_and_terminals/Server_Desktop.svg;" vertex="1" parent="1">
          <mxGeometry x="404" y="984" width="42.599999999999994" height="54" as="geometry" />
        </mxCell>
        <mxCell id="uUhqn-4H62vzg1NEcZKA-8" value="" style="verticalLabelPosition=bottom;aspect=fixed;html=1;verticalAlign=top;strokeColor=none;align=center;outlineConnect=0;shape=mxgraph.citrix.1u_2u_server;" vertex="1" parent="1">
          <mxGeometry x="375" y="1050" width="100" height="39.1" as="geometry" />
        </mxCell>
        <mxCell id="uUhqn-4H62vzg1NEcZKA-12" value="" style="shape=image;html=1;verticalAlign=top;verticalLabelPosition=bottom;labelBackgroundColor=#ffffff;imageAspect=0;aspect=fixed;image=https://cdn2.iconfinder.com/data/icons/whcompare-isometric-web-hosting-servers/50/desktop-pc-128.png" vertex="1" parent="1">
          <mxGeometry x="592" y="410" width="68" height="68" as="geometry" />
        </mxCell>
        <mxCell id="uUhqn-4H62vzg1NEcZKA-13" value="" style="aspect=fixed;perimeter=ellipsePerimeter;html=1;align=center;shadow=0;dashed=0;spacingTop=3;image;image=img/lib/active_directory/laptop_client.svg;" vertex="1" parent="1">
          <mxGeometry x="592" y="478" width="45" height="50" as="geometry" />
        </mxCell>
        <mxCell id="uUhqn-4H62vzg1NEcZKA-16" style="edgeStyle=orthogonalEdgeStyle;rounded=0;orthogonalLoop=1;jettySize=auto;html=1;" edge="1" parent="1" source="uUhqn-4H62vzg1NEcZKA-15" target="uUhqn-4H62vzg1NEcZKA-12">
          <mxGeometry relative="1" as="geometry">
            <Array as="points">
              <mxPoint x="495" y="450" />
              <mxPoint x="557" y="450" />
              <mxPoint x="557" y="444" />
            </Array>
          </mxGeometry>
        </mxCell>
        <mxCell id="uUhqn-4H62vzg1NEcZKA-18" style="edgeStyle=orthogonalEdgeStyle;rounded=0;orthogonalLoop=1;jettySize=auto;html=1;entryX=0;entryY=0.75;entryDx=0;entryDy=0;" edge="1" parent="1" source="uUhqn-4H62vzg1NEcZKA-15" target="uUhqn-4H62vzg1NEcZKA-13">
          <mxGeometry relative="1" as="geometry" />
        </mxCell>
        <mxCell id="uUhqn-4H62vzg1NEcZKA-15" value="" style="pointerEvents=1;shadow=0;dashed=0;html=1;strokeColor=none;fillColor=#505050;labelPosition=center;verticalLabelPosition=bottom;verticalAlign=top;outlineConnect=0;align=center;shape=mxgraph.office.devices.switch;" vertex="1" parent="1">
          <mxGeometry x="467" y="470" width="55" height="18" as="geometry" />
        </mxCell>
        <mxCell id="uUhqn-4H62vzg1NEcZKA-21" value="T7400" style="aspect=fixed;perimeter=ellipsePerimeter;html=1;align=center;shadow=0;dashed=0;spacingTop=3;image;image=img/lib/active_directory/generic_server.svg;" vertex="1" parent="1">
          <mxGeometry x="660" y="900" width="60" height="107.14" as="geometry" />
        </mxCell>
        <mxCell id="uUhqn-4H62vzg1NEcZKA-22" value="" style="endArrow=none;dashed=1;html=1;dashPattern=1 3;strokeWidth=2;" edge="1" parent="1">
          <mxGeometry width="50" height="50" relative="1" as="geometry">
            <mxPoint x="580" y="870" as="sourcePoint" />
            <mxPoint x="580" y="1080" as="targetPoint" />
          </mxGeometry>
        </mxCell>
        <mxCell id="uUhqn-4H62vzg1NEcZKA-25" value="Garage" style="fillColor=none;strokeColor=#5A6C86;dashed=1;verticalAlign=top;fontStyle=0;fontColor=#5A6C86;" vertex="1" parent="1">
          <mxGeometry x="600" y="869.1" width="200" height="180.9" as="geometry" />
        </mxCell>
        <mxCell id="uUhqn-4H62vzg1NEcZKA-27" value="" style="edgeStyle=orthogonalEdgeStyle;rounded=0;orthogonalLoop=1;jettySize=auto;html=1;endArrow=none;" edge="1" parent="1" source="xQfnCEk7CWuEdYwv5p65-17" target="uUhqn-4H62vzg1NEcZKA-15">
          <mxGeometry relative="1" as="geometry">
            <mxPoint x="220" y="960" as="sourcePoint" />
            <mxPoint x="370" y="610" as="targetPoint" />
            <Array as="points">
              <mxPoint x="230" y="790" />
              <mxPoint x="480" y="790" />
            </Array>
          </mxGeometry>
        </mxCell>
        <mxCell id="uUhqn-4H62vzg1NEcZKA-28" value="Basement" style="fillColor=none;strokeColor=#5A6C86;dashed=1;verticalAlign=top;fontStyle=0;fontColor=#5A6C86;" vertex="1" parent="1">
          <mxGeometry x="110" y="860" width="385.2" height="230" as="geometry" />
        </mxCell>
      </root>
    </mxGraphModel>
  </diagram>
</mxfile>
